HIERARCHY
ROOT Hips
{
	OFFSET 0.000000 0.000000 0.000000
	CHANNELS 6 Xposition Yposition Zposition Zrotation Yrotation Xrotation 
	JOINT LHipJoint
	{
		OFFSET 0.000000 0.000000 0.000000
		CHANNELS 3 Zrotation Yrotation Xrotation
		JOINT LeftUpLeg
		{
			OFFSET 1.363060 -1.794630 0.839290
			CHANNELS 3 Zrotation Yrotation Xrotation
			JOINT LeftLeg
			{
				OFFSET 2.448110 -6.726130 0.000000
				CHANNELS 3 Zrotation Yrotation Xrotation
				JOINT LeftFoot
				{
					OFFSET 2.562200 -7.039590 0.000000
					CHANNELS 3 Zrotation Yrotation Xrotation
					JOINT LeftToeBase
					{
						OFFSET 0.157640 -0.433110 2.322550
						CHANNELS 3 Zrotation Yrotation Xrotation
						End Site
						{
							OFFSET 0.000000 0.000000 0.000000
						}
					}
				}
			}
		}
	}
	JOINT RHipJoint
	{
		OFFSET 0.000000 0.000000 0.000000
		CHANNELS 3 Zrotation Yrotation Xrotation
		JOINT RightUpLeg
		{
			OFFSET -1.305520 -1.794630 0.839290
			CHANNELS 3 Zrotation Yrotation Xrotation
			JOINT RightLeg
			{
				OFFSET -2.542530 -6.985550 0.000000
				CHANNELS 3 Zrotation Yrotation Xrotation
				JOINT RightFoot
				{
					OFFSET -2.568260 -7.056230 0.000000
					CHANNELS 3 Zrotation Yrotation Xrotation
					JOINT RightToeBase
					{
						OFFSET -0.164730 -0.452590 2.363150
						CHANNELS 3 Zrotation Yrotation Xrotation
						End Site
						{
							OFFSET 0.000000 0.000000 0.000000
						}
					}
				}
			}
		}
	}
	JOINT LowerBack
	{
		OFFSET 0.000000 0.000000 0.000000
		CHANNELS 3 Zrotation Yrotation Xrotation
		JOINT Spine
		{
			OFFSET 0.028270 2.035590 -0.193380
			CHANNELS 3 Zrotation Yrotation Xrotation
			JOINT Spine1
			{
				OFFSET 0.056720 2.048850 -0.042750
				CHANNELS 3 Zrotation Yrotation Xrotation
				JOINT Neck
				{
					OFFSET 0.000000 0.000000 0.000000
					CHANNELS 3 Zrotation Yrotation Xrotation
					JOINT Neck1
					{
						OFFSET -0.054170 1.746240 0.172020
						CHANNELS 3 Zrotation Yrotation Xrotation
						JOINT Head
						{
							OFFSET 0.104070 1.761360 -0.123970
							CHANNELS 3 Zrotation Yrotation Xrotation
							End Site
							{
								OFFSET 0.000000 0.000000 0.000000
							}
						}
					}
				}
				JOINT LeftShoulder
				{
					OFFSET 0.000000 0.000000 0.000000
					CHANNELS 3 Zrotation Yrotation Xrotation
					JOINT LeftArm
					{
						OFFSET 3.362410 1.200890 -0.311210
						CHANNELS 3 Zrotation Yrotation Xrotation
						JOINT LeftForeArm
						{
							OFFSET 4.983000 -0.000000 -0.000000
							CHANNELS 3 Zrotation Yrotation Xrotation
							JOINT LeftHand
							{
								OFFSET 3.483560 -0.000000 -0.000000
								CHANNELS 3 Zrotation Yrotation Xrotation
								JOINT LeftFingerBase
								{
									OFFSET 0.000000 0.000000 0.000000
									CHANNELS 3 Zrotation Yrotation Xrotation
									JOINT LeftHandIndex1
									{
										OFFSET 0.715260 -0.000000 -0.000000
										CHANNELS 3 Zrotation Yrotation Xrotation
										End Site
										{
											OFFSET 0.000000 0.000000 0.000000
										}
									}
								}
								JOINT LThumb
								{
									OFFSET 0.000000 0.000000 0.000000
									CHANNELS 3 Zrotation Yrotation Xrotation
									End Site
									{
										OFFSET 0.000000 0.000000 0.000000
									}
								}
							}
						}
					}
				}
				JOINT RightShoulder
				{
					OFFSET 0.000000 0.000000 0.000000
					CHANNELS 3 Zrotation Yrotation Xrotation
					JOINT RightArm
					{
						OFFSET -3.136600 1.374050 -0.404650
						CHANNELS 3 Zrotation Yrotation Xrotation
						JOINT RightForeArm
						{
							OFFSET -5.241900 -0.000000 -0.000000
							CHANNELS 3 Zrotation Yrotation Xrotation
							JOINT RightHand
							{
								OFFSET -3.444170 -0.000000 -0.000000
								CHANNELS 3 Zrotation Yrotation Xrotation
								JOINT RightFingerBase
								{
									OFFSET 0.000000 0.000000 0.000000
									CHANNELS 3 Zrotation Yrotation Xrotation
									JOINT RightHandIndex1
									{
										OFFSET -0.622530 -0.000000 -0.000000
										CHANNELS 3 Zrotation Yrotation Xrotation
										End Site
										{
											OFFSET 0.000000 0.000000 0.000000
										}
									}
								}
								JOINT RThumb
								{
									OFFSET 0.000000 0.000000 0.000000
									CHANNELS 3 Zrotation Yrotation Xrotation
									End Site
									{
										OFFSET 0.000000 0.000000 0.000000
									}
								}
							}
						}
					}
				}
			}
		}
	}
}
MOTION
Frames: 10
Frame Time: 0.008333
1.663200 15.848553 2.627113 -101.719543 -74.738921 156.352819 -8.166337 -5.776779 -2.917524 -1.578753 0.362063 -85.403772 -0.791471 3.732004 52.188743 4.557873 15.204205 -21.816189 -2.726600 0.000000 -27.524200 7.079148 0.141488 11.808908 -9.127502 15.004402 -122.914465 7.874923 5.421939 -12.018968 1.367770 3.434107 5.228949 -0.501800 0.000000 -74.512100 9.746798 0.518850 0.111120 1.301014 0.152462 -3.381413 -5.781490 0.188111 -1.451226 9.024420 -9.631619 -7.781134 -1.376280 -0.067944 -0.642106 0.000000 0.000000 0.000000 6.650446 6.788084 2.934639 -57.962150 12.262346 -12.175727 -178.944262 -71.937813 179.957564 5.789314 2.400372 0.108261 -0.211339 0.369983 0.000000 0.000000 0.000000 0.000000 0.000000 0.000000 0.000000 -0.739335 -1.808740 0.525111 64.338969 1.528821 1.356990 179.243156 66.649710 179.932781 -8.246145 5.894548 -0.481453 0.200361 -0.635965 0.000000 0.000000 0.000000 0.000000 0.000000 0.000000 0.000000 
1.669282 15.803735 2.629105 -102.087950 -74.450732 156.938498 -8.138620 -5.849027 -2.893612 -1.143239 0.374131 -86.047187 -0.678134 3.805212 53.083784 4.659285 15.604620 -22.160498 -2.880900 -0.000000 -27.348600 7.103985 0.098470 11.688320 -8.764447 15.474296 -122.975841 8.105037 5.017034 -10.679452 1.722627 4.468790 6.731912 -0.116400 -0.000000 -76.129200 9.720737 0.675754 0.266939 1.267702 0.322023 -3.370330 -5.839675 0.358443 -1.540868 9.027157 -9.334147 -7.658525 -1.431755 -0.073419 -0.617658 0.000000 0.000000 0.000000 6.373260 6.779451 2.922831 -58.605139 12.399628 -11.836192 -178.996875 -72.400552 179.958309 5.754912 2.417225 0.108503 -0.204335 0.365949 0.000000 0.000000 0.000000 0.000000 0.000000 0.000000 0.000000 -0.476257 -1.505564 0.487706 65.108356 1.851328 1.008167 179.308519 67.140328 179.927279 -8.806460 5.975764 -0.520651 0.208169 -0.639261 0.000000 0.000000 0.000000 0.000000 0.000000 0.000000 0.000000 
1.673932 15.763704 2.630923 -102.250533 -74.213477 157.256128 -8.126293 -5.920412 -2.853025 -0.723612 0.366681 -86.581425 -0.570940 3.861652 53.879992 4.747600 15.957329 -22.469904 -3.022700 -0.000000 -27.158500 7.123078 0.051375 11.523236 -8.204723 15.971437 -122.815238 8.329580 4.560846 -9.267670 2.100149 5.592063 8.540403 0.373700 0.000000 -77.313800 9.706034 0.806420 0.429221 1.242872 0.464886 -3.355836 -5.883290 0.501487 -1.626058 9.030610 -9.051107 -7.546106 -1.481180 -0.078267 -0.595385 0.000000 0.000000 0.000000 6.105591 6.775091 2.910838 -59.265494 12.511737 -11.466652 -179.050963 -72.908214 179.959125 5.706853 2.435986 0.108646 -0.196785 0.362222 0.000000 0.000000 0.000000 0.000000 0.000000 0.000000 0.000000 -0.220601 -1.231884 0.449430 65.827907 2.217117 0.797696 179.374663 67.691686 179.921522 -9.404380 6.072576 -0.564352 0.216635 -0.642196 0.000000 0.000000 0.000000 0.000000 0.000000 0.000000 0.000000 
1.676753 15.728829 2.632363 -102.191442 -74.047599 157.299400 -8.128171 -5.987125 -2.794098 -0.335756 0.318639 -87.013157 -0.472359 3.899904 54.564112 4.821380 16.252512 -22.738536 -3.147100 -0.000000 -26.961500 7.132358 0.005072 11.319573 -7.488364 16.436226 -122.389294 8.517740 4.100592 -7.930344 2.460555 6.723861 10.479817 0.948800 -0.000000 -77.921800 9.700871 0.906605 0.588275 1.226334 0.576096 -3.339223 -5.912989 0.612403 -1.705040 9.036369 -8.787427 -7.448161 -1.523795 -0.082389 -0.576351 0.000000 0.000000 0.000000 5.849108 6.775319 2.899907 -59.930788 12.599878 -11.063209 -179.104780 -73.451809 179.959991 5.647069 2.455994 0.108590 -0.188962 0.358845 0.000000 0.000000 0.000000 0.000000 0.000000 0.000000 0.000000 0.022959 -0.991236 0.411719 66.496044 2.604656 0.722882 179.439571 68.283980 179.915719 -10.017293 6.185624 -0.611552 0.225281 -0.644823 0.000000 0.000000 0.000000 0.000000 0.000000 0.000000 0.000000 
1.677517 15.699440 2.632911 -101.911783 -73.967008 157.085101 -8.141790 -6.044462 -2.716734 0.004276 0.215845 -87.357835 -0.385267 3.919878 55.123540 4.879497 16.481169 -22.959278 -3.248800 0.000000 -26.771600 7.129964 -0.037172 11.091953 -6.679679 16.814050 -121.686092 8.646715 3.681037 -6.782844 2.764872 7.755100 12.364166 1.551100 0.000000 -77.987900 9.698343 0.975037 0.728889 1.216194 0.653612 -3.323526 -5.930550 0.689277 -1.775979 9.047163 -8.547905 -7.368467 -1.559085 -0.085723 -0.561398 0.000000 0.000000 0.000000 5.608520 6.780784 2.891038 -60.586204 12.666875 -10.623230 -179.156687 -74.021117 179.960884 5.577765 2.476663 0.108340 -0.181158 0.355828 0.000000 0.000000 0.000000 0.000000 0.000000 0.000000 0.000000 0.251156 -0.785695 0.375979 67.115402 2.990806 0.776397 179.501035 68.893107 179.910120 -10.617443 6.314309 -0.660654 0.233579 -0.647234 0.000000 0.000000 0.000000 0.000000 0.000000 0.000000 0.000000 
1.675850 15.675578 2.631982 -101.421169 -73.980349 156.642565 -8.164352 -6.086691 -2.621063 0.281047 0.048769 -87.634660 -0.312435 3.922199 55.548096 4.921283 16.635832 -23.125962 -3.322800 -0.000000 -26.602900 7.117846 -0.076037 10.856733 -5.830761 17.075904 -120.734570 8.713617 3.328468 -5.862097 2.989807 8.593138 14.015555 2.104300 0.000000 -77.677900 9.689721 1.012530 0.835264 1.209813 0.697629 -3.312508 -5.938327 0.732398 -1.837529 9.064789 -8.338503 -7.309674 -1.586934 -0.088249 -0.551074 0.000000 0.000000 0.000000 5.387688 6.789187 2.884747 -61.215130 12.717335 -10.146736 -179.205121 -74.601469 179.961790 5.500283 2.496898 0.107795 -0.173629 0.353179 0.000000 0.000000 0.000000 0.000000 0.000000 0.000000 0.000000 0.461845 -0.618293 0.343878 67.691876 3.355207 0.948405 179.556875 69.496884 179.904999 -11.173492 6.456335 -0.709656 0.240984 -0.649506 0.000000 0.000000 0.000000 0.000000 0.000000 0.000000 0.000000 
1.671708 15.657245 2.628748 -100.748429 -74.093702 156.015680 -8.191858 -6.106064 -2.507927 0.474797 -0.190334 -87.863164 -0.256748 3.908238 55.830727 4.946594 16.711187 -23.234521 -3.365700 -0.000000 -26.470000 7.102726 -0.113462 10.629545 -4.985204 17.211883 -119.600573 8.726659 3.046038 -5.127453 3.127375 9.166662 15.288543 2.530101 0.000000 -77.219200 9.659114 1.020438 0.892257 1.202658 0.709231 -3.310294 -5.939209 0.742911 -1.888786 9.092035 -8.161543 -7.272627 -1.607746 -0.090014 -0.545323 0.000000 0.000000 0.000000 5.193352 6.799035 2.881545 -61.800387 12.757933 -9.635762 -179.248714 -75.178008 179.962695 5.415581 2.515977 0.107056 -0.166621 0.350873 0.000000 0.000000 0.000000 0.000000 0.000000 0.000000 0.000000 0.655702 -0.488531 0.316377 68.233830 3.677845 1.226081 179.605350 70.073412 179.900626 -11.653696 6.608309 -0.756356 0.246958 -0.651714 0.000000 0.000000 0.000000 0.000000 0.000000 0.000000 0.000000 
1.665197 15.644559 2.623269 -99.885884 -74.296672 155.207566 -8.225002 -6.105684 -2.379623 0.590796 -0.488650 -88.052982 -0.219066 3.879922 55.968831 4.954441 16.702795 -23.281173 -3.374700 0.000001 -26.382800 7.084727 -0.152197 10.418811 -4.177993 17.224150 -118.314008 8.689018 2.836064 -4.566751 3.172716 9.394674 16.133240 2.754900 -0.000001 -76.812700 9.610573 1.005444 0.898148 1.194604 0.694942 -3.317385 -5.935006 0.727468 -1.929151 9.123487 -8.034360 -7.259903 -1.621185 -0.090955 -0.545027 0.000000 0.000000 0.000000 5.021367 6.801969 2.880094 -62.331394 12.788538 -9.097276 -179.287082 -75.735717 179.963609 5.324885 2.531114 0.106024 -0.160205 0.348925 0.000000 0.000000 0.000000 0.000000 0.000000 0.000000 0.000000 0.824479 -0.410433 0.295637 68.746224 3.959127 1.598164 179.644936 70.608291 179.897209 -12.031248 6.768074 -0.798354 0.251129 -0.653995 0.000000 0.000000 0.000000 0.000000 0.000000 0.000000 0.000000 
1.656226 15.637115 2.614482 -98.884782 -74.591797 154.277996 -8.258809 -6.075405 -2.237665 0.605982 -0.849779 -88.216751 -0.202099 3.839637 55.962811 4.945629 16.610923 -23.266802 -3.349900 -0.000000 -26.350699 7.076118 -0.195228 10.233678 -3.427798 17.130624 -116.974862 8.615832 2.668032 -4.036837 3.136357 9.274976 16.492896 2.751300 0.000000 -76.592700 9.521149 0.968331 0.843535 1.179382 0.655948 -3.337022 -5.929023 0.687236 -1.958597 9.163437 -7.949453 -7.268006 -1.628893 -0.091269 -0.548889 0.000000 0.000000 0.000000 4.880583 6.799291 2.881043 -62.793505 12.817869 -8.538142 -179.319138 -76.259659 179.964524 5.227028 2.542449 0.104700 -0.154549 0.347273 0.000000 0.000000 0.000000 0.000000 0.000000 0.000000 0.000000 0.975359 -0.375150 0.280788 69.237261 4.181727 2.047970 179.674982 71.079936 179.894929 -12.282154 6.930766 -0.833149 0.253114 -0.656391 0.000000 0.000000 0.000000 0.000000 0.000000 0.000000 0.000000 
1.644987 15.634725 2.602358 -97.756576 -74.965880 153.238831 -8.293031 -6.016665 -2.085327 0.523751 -1.259661 -88.353230 -0.206077 3.789576 55.817556 4.920304 16.438254 -23.193246 -3.292900 0.000000 -26.376700 7.079329 -0.245523 10.074540 -2.743560 16.952780 -115.627767 8.512030 2.522093 -3.457539 3.023386 8.805676 16.394095 2.517700 -0.000000 -76.590300 9.390322 0.914400 0.734425 1.155963 0.598115 -3.368111 -5.922838 0.628125 -1.977331 9.207770 -7.913170 -7.295502 -1.631642 -0.091023 -0.556660 0.000000 0.000000 0.000000 4.768638 6.786943 2.883241 -63.181006 12.845833 -7.969769 -179.344804 -76.736221 179.965449 5.121914 2.548273 0.102883 -0.149646 0.345911 0.000000 0.000000 0.000000 0.000000 0.000000 0.000000 0.000000 1.106238 -0.387434 0.272146 69.709437 4.349497 2.561766 179.695171 71.478710 179.893888 -12.392701 7.093792 -0.858941 0.252739 -0.658977 0.000000 0.000000 0.000000 0.000000 0.000000 0.000000 0.000000 
